<svg id="add_photo" xmlns="http://www.w3.org/2000/svg" width="50" height="50" viewBox="0 0 50 50">
  <path id="Path_138" data-name="Path 138" d="M0,0H50V50H0Z" fill="none"/>
  <path id="Path_139" data-name="Path 139" d="M6.25,15.583a2.083,2.083,0,1,0,4.167,0V11.417h4.167a2.083,2.083,0,0,0,0-4.167H10.417V3.083a2.083,2.083,0,0,0-4.167,0V7.25H2.083a2.083,2.083,0,1,0,0,4.167H6.25Z" transform="translate(0 1.083)" fill="#689d43"/>
  <circle id="Ellipse_5" data-name="Ellipse 5" cx="6.25" cy="6.25" r="6.25" transform="translate(20.833 22.917)" fill="#689d43"/>
  <path id="Path_140" data-name="Path 140" d="M40.5,8.167H33.9L31.313,5.354A4.147,4.147,0,0,0,28.25,4H14.917a4.133,4.133,0,0,1-3.583,6.25H9.25v2.083A4.179,4.179,0,0,1,5.083,16.5,4.172,4.172,0,0,1,3,15.917V37.333A4.179,4.179,0,0,0,7.167,41.5H40.5a4.179,4.179,0,0,0,4.167-4.167v-25A4.179,4.179,0,0,0,40.5,8.167ZM23.833,35.25A10.417,10.417,0,1,1,34.25,24.833,10.42,10.42,0,0,1,23.833,35.25Z" transform="translate(3.25 4.333)" fill="#689d43"/>
</svg>
