<svg xmlns="http://www.w3.org/2000/svg" width="100" height="100" viewBox="0 0 100 100">
  <g id="call_button_2x" transform="translate(-48 -313)">
    <rect id="Rectangle_175" data-name="Rectangle 175" width="100" height="100" rx="50" transform="translate(48 313)" fill="#689d43"/>
    <g id="round-phone-24px" transform="translate(77 344)">
      <path id="Path_17" data-name="Path 17" d="M0,0H32.615V32.615H0Z" fill="none"/>
      <path id="Path_18" data-name="Path 18" d="M34.644,26.913l-4.956-.566a3.884,3.884,0,0,0-3.2,1.112L22.9,31.05A29.358,29.358,0,0,1,10.039,18.191l3.61-3.61a3.884,3.884,0,0,0,1.112-3.2l-.566-4.917A3.905,3.905,0,0,0,10.312,3.01H6.936a3.872,3.872,0,0,0-3.9,4.039A33.155,33.155,0,0,0,34.039,38.055a3.872,3.872,0,0,0,4.039-3.9V30.777A3.867,3.867,0,0,0,34.644,26.913Z" transform="translate(0.211 0.209)" fill="#fff"/>
    </g>
  </g>
</svg>
