<svg xmlns="http://www.w3.org/2000/svg" width="44" height="44" viewBox="0 0 44 44">
  <g id="Group_1030" data-name="Group 1030" transform="translate(-219 -231)">
    <circle id="Ellipse_13" data-name="Ellipse 13" cx="22" cy="22" r="22" transform="translate(219 231)" fill="#689d43"/>
    <g id="phone" transform="translate(233 245)">
      <path id="Path_17" data-name="Path 17" d="M0,0H16V16H0Z" fill="none"/>
      <path id="Path_18" data-name="Path 18" d="M15.039,12.091l-1.883-.215a1.476,1.476,0,0,0-1.216.423l-1.364,1.364A11.154,11.154,0,0,1,5.69,8.778L7.062,7.406A1.476,1.476,0,0,0,7.484,6.19L7.27,4.322A1.484,1.484,0,0,0,5.794,3.01H4.512A1.471,1.471,0,0,0,3.029,4.545a12.6,12.6,0,0,0,11.78,11.78,1.471,1.471,0,0,0,1.535-1.483V13.559A1.469,1.469,0,0,0,15.039,12.091Z" transform="translate(-1.681 -1.672)" fill="#fff"/>
    </g>
  </g>
</svg>
