<svg xmlns="http://www.w3.org/2000/svg" width="70" height="70" viewBox="0 0 70 70">
  <g id="change" transform="translate(-248 -537)">
    <g id="Rectangle_176" data-name="Rectangle 176" transform="translate(248 537)" fill="#fff" stroke="#689d43" stroke-width="1">
      <rect width="70" height="70" rx="35" stroke="none"/>
      <rect x="0.5" y="0.5" width="69" height="69" rx="34.5" fill="none"/>
    </g>
    <g id="round-create-24px" transform="translate(267 556)">
      <path id="Path_146" data-name="Path 146" d="M0,0H33V33H0Z" fill="none"/>
      <path id="Path_147" data-name="Path 147" d="M3,22.883v4.18a.681.681,0,0,0,.688.688h4.18a.645.645,0,0,0,.481-.206l15.015-15L18.207,7.387l-15,15A.675.675,0,0,0,3,22.883ZM27.351,8.556a1.369,1.369,0,0,0,0-1.939L24.134,3.4a1.369,1.369,0,0,0-1.939,0L19.679,5.916l5.156,5.156,2.516-2.516Z" transform="translate(1.125 1.124)" fill="#689d43"/>
    </g>
  </g>
</svg>
