<svg id="communication_grid" xmlns="http://www.w3.org/2000/svg" width="50.74" height="50.74" viewBox="0 0 50.74 50.74">
  <path id="Path_146" data-name="Path 146" d="M0,0H50.74V50.74H0Z" fill="none"/>
  <path id="Path_147" data-name="Path 147" d="M40.055,2H6.228A4.223,4.223,0,0,0,2.021,6.228L2,44.284l8.457-8.457h29.6A4.241,4.241,0,0,0,44.284,31.6V6.228A4.241,4.241,0,0,0,40.055,2ZM33.713,27.37H12.571a2.114,2.114,0,1,1,0-4.228H33.713a2.114,2.114,0,1,1,0,4.228Zm0-6.343H12.571a2.114,2.114,0,1,1,0-4.228H33.713a2.114,2.114,0,1,1,0,4.228Zm0-6.343H12.571a2.114,2.114,0,0,1,0-4.228H33.713a2.114,2.114,0,1,1,0,4.228Z" transform="translate(2.228 2.228)" fill="#fff"/>
</svg>
