<svg xmlns="http://www.w3.org/2000/svg" width="41.547" height="45.805" viewBox="0 0 41.547 45.805">
  <g id="completejob_grid" transform="translate(-20.746 -7.5)">
    <path id="Path_160" data-name="Path 160" d="M53.464,51.123H22.928V20.587h9.918A1.091,1.091,0,0,0,33.937,19.5V9.682H53.464v4.7c.048-.006.095-.018.145-.02a5.309,5.309,0,0,1,1.56.2c.146.038.308.092.477.15V8.591A1.091,1.091,0,0,0,54.555,7.5H32.743a1.093,1.093,0,0,0-.772.319L21.065,18.726a1.089,1.089,0,0,0-.319.77v32.72A1.09,1.09,0,0,0,21.837,53.3H54.555a1.09,1.09,0,0,0,1.091-1.089V35.306a3.27,3.27,0,0,1-2.182.927v14.89Z" transform="translate(0 0)" fill="#fff"/>
    <path id="Path_161" data-name="Path 161" d="M254.053,50.08a1.894,1.894,0,0,0-1.308-.686.33.33,0,0,0-.222.1l-2.479,2.479a7.023,7.023,0,0,1,2.12,2.119l2.476-2.478a.33.33,0,0,0,.1-.221A1.9,1.9,0,0,0,254.053,50.08Z" transform="translate(-192.446 -35.16)" fill="#fff"/>
    <path id="Path_162" data-name="Path 162" d="M116.252,72.458l-1.2,1.2-.8-.8,2.145-2.145a1.054,1.054,0,0,0,.306-.695c.008-.194.018-1.943-2.157-4.118s-3.923-2.164-4.118-2.158a1.055,1.055,0,0,0-.694.307L91.225,82.561a1.028,1.028,0,0,0-.252.41l-2.591,7.774a1.047,1.047,0,0,0,1.324,1.324l7.776-2.593a1.089,1.089,0,0,0,.407-.249l15.595-15.6.8.8-4.982,4.98a1.091,1.091,0,0,0,1.542,1.544L117.795,74a1.091,1.091,0,1,0-1.543-1.542Z" transform="translate(-56.72 -47.205)" fill="#fff"/>
  </g>
</svg>
