<svg xmlns="http://www.w3.org/2000/svg" width="100" height="100" viewBox="0 0 100 100">
  <g id="completejob_button_2x" transform="translate(-48 -570)">
    <rect id="Rectangle_175" data-name="Rectangle 175" width="100" height="100" rx="50" transform="translate(48 570)" fill="#689d43"/>
    <g id="signing-a-document" transform="translate(82 602)">
      <path id="Path_160" data-name="Path 160" d="M46.245,41.5h-23.8V17.7h7.73a.85.85,0,0,0,.85-.85V9.2H46.245v3.663c.038,0,.074-.014.113-.016A4.138,4.138,0,0,1,47.575,13c.114.029.24.072.371.117V8.35a.85.85,0,0,0-.85-.85h-17a.852.852,0,0,0-.6.249l-8.5,8.5a.849.849,0,0,0-.249.6v25.5a.85.85,0,0,0,.85.849H47.1a.85.85,0,0,0,.85-.849V29.171a2.548,2.548,0,0,1-1.7.722V41.5Z" transform="translate(-20.746 -7.5)" fill="#fff"/>
      <path id="Path_161" data-name="Path 161" d="M253.169,49.928a1.476,1.476,0,0,0-1.02-.535.257.257,0,0,0-.173.075L250.045,51.4a5.474,5.474,0,0,1,1.652,1.651l1.93-1.931a.257.257,0,0,0,.077-.172A1.478,1.478,0,0,0,253.169,49.928Z" transform="translate(-221.323 -44.146)" fill="#fff"/>
      <path id="Path_162" data-name="Path 162" d="M110.091,70.536l-.935.935-.622-.621,1.672-1.672a.821.821,0,0,0,.239-.541c.006-.151.014-1.514-1.681-3.209a4.653,4.653,0,0,0-3.209-1.682.823.823,0,0,0-.541.239L90.585,78.41a.8.8,0,0,0-.2.319l-2.02,6.059A.816.816,0,0,0,89.4,85.82L95.462,83.8a.848.848,0,0,0,.317-.194l12.154-12.155.621.621-3.883,3.881a.85.85,0,0,0,1.2,1.2l5.42-5.419a.85.85,0,1,0-1.2-1.2Z" transform="translate(-79.863 -56.699)" fill="#fff"/>
    </g>
  </g>
</svg>
