<svg xmlns="http://www.w3.org/2000/svg" width="100" height="100" viewBox="0 0 100 100">
  <g id="costing_button_2x" transform="translate(-48 -313)">
    <rect id="Rectangle_175" data-name="Rectangle 175" width="100" height="100" rx="50" transform="translate(48 313)" fill="#689d43"/>
    <g id="dollar-symbol" transform="translate(89 346)">
      <path id="Path_120" data-name="Path 120" d="M130.491,15.788a41.849,41.849,0,0,0-4.25-1.924,9.541,9.541,0,0,1-2.333-1.306,2.029,2.029,0,0,1,.5-3.611,4.1,4.1,0,0,1,1.429-.294,10.843,10.843,0,0,1,5.369,1.062c.847.409,1.127.28,1.414-.6.3-.933.553-1.881.833-2.821a.985.985,0,0,0-.639-1.314,13.65,13.65,0,0,0-3.388-1.012c-1.536-.237-1.536-.244-1.543-1.787C127.878,0,127.878,0,125.7,0c-.316,0-.632-.007-.948,0-1.019.029-1.192.208-1.22,1.235-.014.459,0,.919-.007,1.385-.007,1.364-.014,1.342-1.321,1.816-3.159,1.149-5.111,3.3-5.319,6.748-.187,3.051,1.407,5.111,3.912,6.611a43.249,43.249,0,0,0,4.889,2.2,7.261,7.261,0,0,1,1.78,1.048,2.441,2.441,0,0,1-.581,4.278,5.855,5.855,0,0,1-3.137.409,14,14,0,0,1-4.781-1.429c-.883-.459-1.141-.337-1.443.617-.258.826-.488,1.658-.718,2.491-.309,1.12-.194,1.385.876,1.909a15.265,15.265,0,0,0,4.307,1.235c1.163.187,1.2.237,1.213,1.443.007.546.007,1.1.014,1.644a.976.976,0,0,0,1.048,1.105c.8.014,1.615.014,2.419-.007a.92.92,0,0,0,1-1.041c0-.747.036-1.5.007-2.247a1.187,1.187,0,0,1,1.027-1.35,8.113,8.113,0,0,0,4.228-2.713A7.629,7.629,0,0,0,130.491,15.788Z" transform="translate(-116.652 0)" fill="#fff"/>
    </g>
  </g>
</svg>
