<svg xmlns="http://www.w3.org/2000/svg" width="19.424" height="19.424" viewBox="0 0 19.424 19.424">
  <g id="description" transform="translate(0 0)">
    <path id="Path_165" data-name="Path 165" d="M0,0H19.424V19.424H0Z" fill="none"/>
    <path id="Path_166" data-name="Path 166" d="M18.179,3.619A1.617,1.617,0,0,0,16.568,2H3.619A1.623,1.623,0,0,0,2,3.619v9.712A1.623,1.623,0,0,0,3.619,14.95H14.95l3.237,3.237ZM14.14,11.712H6.047a.809.809,0,1,1,0-1.619H14.14a.809.809,0,1,1,0,1.619Zm0-2.428H6.047a.809.809,0,1,1,0-1.619H14.14a.809.809,0,1,1,0,1.619Zm0-2.428H6.047a.809.809,0,0,1,0-1.619H14.14a.809.809,0,1,1,0,1.619Z" transform="translate(-0.381 -0.381)" fill="#fff"/>
  </g>
</svg>
