<svg xmlns="http://www.w3.org/2000/svg" width="8.265" height="15.95" viewBox="0 0 8.265 15.95">
  <g id="dollar-symbol_black" transform="translate(-116.652 0)">
    <path id="Path_120" data-name="Path 120" d="M123,7.245a19.2,19.2,0,0,0-1.95-.883,4.379,4.379,0,0,1-1.071-.6.931.931,0,0,1,.231-1.657,1.879,1.879,0,0,1,.656-.135,4.976,4.976,0,0,1,2.464.488c.389.188.517.128.649-.277.138-.428.254-.863.382-1.295a.452.452,0,0,0-.293-.6,6.264,6.264,0,0,0-1.555-.464c-.7-.109-.7-.112-.708-.82,0-1,0-1-1-1-.145,0-.29,0-.435,0-.468.013-.547.1-.56.567-.007.211,0,.422,0,.636,0,.626-.007.616-.606.833a3.342,3.342,0,0,0-2.441,3.1,3.173,3.173,0,0,0,1.8,3.034A19.848,19.848,0,0,0,120.8,9.175a3.332,3.332,0,0,1,.817.481,1.12,1.12,0,0,1-.267,1.963,2.687,2.687,0,0,1-1.44.188,6.425,6.425,0,0,1-2.194-.656c-.405-.211-.524-.155-.662.283-.119.379-.224.761-.329,1.143-.142.514-.089.636.4.876a7.005,7.005,0,0,0,1.977.567c.534.086.55.109.557.662,0,.25,0,.5.007.754a.448.448,0,0,0,.481.507c.369.007.741.007,1.11,0a.422.422,0,0,0,.458-.478c0-.343.016-.688,0-1.031a.545.545,0,0,1,.471-.619,3.723,3.723,0,0,0,1.94-1.245A3.5,3.5,0,0,0,123,7.245Z" transform="translate(0 0)"/>
  </g>
</svg>
