<svg xmlns="http://www.w3.org/2000/svg" width="22.788" height="43.98" viewBox="0 0 22.788 43.98">
  <g id="Dollar_-_Quote" data-name="Dollar - Quote" transform="translate(-116.652 0)">
    <path id="Path_120" data-name="Path 120" d="M134.163,19.978a52.949,52.949,0,0,0-5.377-2.434,12.073,12.073,0,0,1-2.952-1.653,2.568,2.568,0,0,1,.636-4.569,5.182,5.182,0,0,1,1.808-.372,13.72,13.72,0,0,1,6.794,1.344c1.072.518,1.426.354,1.789-.763.382-1.181.7-2.38,1.054-3.57a1.247,1.247,0,0,0-.808-1.662,17.272,17.272,0,0,0-4.287-1.281c-1.944-.3-1.944-.309-1.953-2.262C130.856,0,130.856,0,128.095,0c-.4,0-.8-.009-1.2,0-1.29.036-1.508.263-1.544,1.562-.018.581,0,1.163-.009,1.753-.009,1.726-.018,1.7-1.671,2.3-4,1.453-6.467,4.178-6.731,8.538-.236,3.86,1.78,6.467,4.95,8.366a54.727,54.727,0,0,0,6.186,2.779,9.188,9.188,0,0,1,2.253,1.326,3.088,3.088,0,0,1-.736,5.414,7.408,7.408,0,0,1-3.969.518,17.717,17.717,0,0,1-6.049-1.808c-1.117-.581-1.444-.427-1.826.781-.327,1.045-.618,2.1-.908,3.152-.391,1.417-.245,1.753,1.108,2.416a19.315,19.315,0,0,0,5.45,1.562c1.471.236,1.517.3,1.535,1.826.009.69.009,1.39.018,2.08a1.235,1.235,0,0,0,1.326,1.4c1.017.018,2.044.018,3.061-.009a1.164,1.164,0,0,0,1.263-1.317c0-.945.045-1.9.009-2.843a1.5,1.5,0,0,1,1.3-1.708,10.265,10.265,0,0,0,5.35-3.433A9.653,9.653,0,0,0,134.163,19.978Z" transform="translate(0 0)" fill="#fff"/>
  </g>
</svg>
