<svg id="E-_Mail_24px" data-name="E- Mail 24px" xmlns="http://www.w3.org/2000/svg" width="24.557" height="24.557" viewBox="0 0 24.557 24.557">
  <path id="Path_118" data-name="Path 118" d="M0,0H24.557V24.557H0Z" fill="none"/>
  <path id="Path_119" data-name="Path 119" d="M20.418,4H4.046A2.044,2.044,0,0,0,2.01,6.046L2,18.325a2.052,2.052,0,0,0,2.046,2.046H20.418a2.052,2.052,0,0,0,2.046-2.046V6.046A2.052,2.052,0,0,0,20.418,4Zm-.409,4.349-7.234,4.523a1.035,1.035,0,0,1-1.085,0L4.456,8.349a.869.869,0,1,1,.921-1.473l6.856,4.287,6.856-4.287a.869.869,0,1,1,.921,1.473Z" transform="translate(0.046 0.093)" fill="#689d43"/>
</svg>
