<svg xmlns="http://www.w3.org/2000/svg" width="15.776" height="15.691" viewBox="0 0 15.776 15.691">
  <g id="edit_tm" data-name="edit tm" transform="translate(0 -0.269)">
    <path id="Path_190" data-name="Path 190" d="M15.323,27.925a.413.413,0,0,0-.413.413V32.01a1.242,1.242,0,0,1-1.24,1.24H2.067a1.242,1.242,0,0,1-1.24-1.24V21.235a1.242,1.242,0,0,1,1.24-1.24H5.739a.413.413,0,0,0,0-.827H2.067A2.07,2.07,0,0,0,0,21.235V32.01a2.07,2.07,0,0,0,2.067,2.067h11.6a2.07,2.07,0,0,0,2.067-2.067V28.339A.414.414,0,0,0,15.323,27.925Zm0,0" transform="translate(0 -18.118)"/>
    <path id="Path_191" data-name="Path 191" d="M156.367,38.365l6.037-6.037,1.947,1.947-6.037,6.037Zm0,0" transform="translate(-149.902 -30.734)"/>
    <path id="Path_192" data-name="Path 192" d="M132.543,199.371l2.152-.6-1.556-1.556Zm0,0" transform="translate(-127.063 -188.807)"/>
    <path id="Path_193" data-name="Path 193" d="M318.427.571a1.035,1.035,0,0,0-1.462,0l-.439.439,1.947,1.947.439-.439a1.035,1.035,0,0,0,0-1.462Zm0,0" transform="translate(-303.439)"/>
  </g>
</svg>
