<svg xmlns="http://www.w3.org/2000/svg" width="38.98" height="43.98" viewBox="0 0 38.98 43.98">
  <g id="Enviro_Approval" data-name="Enviro Approval" transform="translate(-2.671)">
    <g id="Layer_1_64_" transform="translate(2.671)">
      <g id="Group_268" data-name="Group 268">
        <path id="Path_100" data-name="Path 100" d="M22.432,22.429a1.068,1.068,0,0,0,2.136,0,5.321,5.321,0,0,1,1.251-3.421,21.945,21.945,0,0,0,3.988-6.851A1.067,1.067,0,0,0,28.8,10.734H18.2a1.067,1.067,0,0,0-1.008,1.423,21.984,21.984,0,0,0,3.988,6.851A5.32,5.32,0,0,1,22.432,22.429Z" transform="translate(-4.01 -0.947)" fill="#fff"/>
        <path id="Path_101" data-name="Path 101" d="M19,26.71c0-.59-.271-1.067-.6-1.067s-.6.479-.6,1.067a7.129,7.129,0,0,1-1.467,4.3,28.037,28.037,0,0,0-4.5,8.52,1.789,1.789,0,0,0,.005,1.062c.108.329.307.53.522.53H24.442c.214,0,.413-.2.522-.53a1.8,1.8,0,0,0,0-1.062,28.036,28.036,0,0,0-4.5-8.52A7.123,7.123,0,0,1,19,26.71Z" transform="translate(1.092 -5.726)" fill="#fff"/>
        <path id="Path_102" data-name="Path 102" d="M39.651,39.982h-.6c-.687-7.778-5.242-13.75-8.783-17.992C33.812,17.749,38.365,11.777,39.055,4h.6a2,2,0,0,0,0-4H4.67a2,2,0,0,0,0,4h.6c.688,7.779,5.241,13.752,8.783,17.992C10.509,26.231,5.955,32.2,5.267,39.982h-.6a2,2,0,0,0,0,4H39.653a2,2,0,1,0,0-4Zm-30.377,0c.751-7.028,5.32-12.44,8.735-16.484l.182-.216a2,2,0,0,0,0-2.578l-.182-.215C14.6,16.443,10.026,11.031,9.274,4H35.047c-.751,7.029-5.322,12.441-8.736,16.486l-.181.215a2,2,0,0,0,0,2.578l.182.216c3.413,4.044,7.982,9.456,8.734,16.484H9.274Z" transform="translate(-2.671)" fill="#fff"/>
      </g>
    </g>
  </g>
</svg>
