<svg xmlns="http://www.w3.org/2000/svg" width="60" height="60" viewBox="0 0 60 60">
  <g id="enviro_form" transform="translate(-86 -382)">
    <rect id="Rectangle_175" data-name="Rectangle 175" width="60" height="60" rx="30" transform="translate(86 382)" fill="#689d43"/>
    <g id="leaf" transform="translate(27.127 397)">
      <path id="Path_163" data-name="Path 163" d="M96,0a17.059,17.059,0,0,1-5.1,3.333c-19.609,7.093-11.339,20.914-11.069,20.96a11.286,11.286,0,0,1,2.585-3.007c9.426-6.929,11.341-14.9,11.341-14.9a28.621,28.621,0,0,1-10.5,15.569c-1.852,1.318-3.106,4.564-3.637,7.808,0,0,1.313-.53,1.877-.674a10.445,10.445,0,0,1,1.459-4.041C94.676,26.439,98.514,17,99.016,13.7A20.344,20.344,0,0,0,96,0Z" transform="translate(0 0)" fill="#fff"/>
    </g>
  </g>
</svg>
