<svg id="eta_confirmed" xmlns="http://www.w3.org/2000/svg" width="25.86" height="25.86" viewBox="0 0 25.86 25.86">
  <path id="Path_17" data-name="Path 17" d="M0,0H25.86V25.86H0Z" fill="none"/>
  <path id="Path_18" data-name="Path 18" d="M22.441,17.688,19.4,17.34a2.385,2.385,0,0,0-1.965.683l-2.2,2.2a18.027,18.027,0,0,1-7.9-7.9l2.217-2.217a2.385,2.385,0,0,0,.683-1.965L9.884,5.131A2.4,2.4,0,0,0,7.5,3.01H5.427a2.378,2.378,0,0,0-2.4,2.48A20.359,20.359,0,0,0,22.07,24.53a2.378,2.378,0,0,0,2.48-2.4V20.06A2.375,2.375,0,0,0,22.441,17.688Z" transform="translate(-0.852 -0.848)" fill="#689d43"/>
</svg>
