<svg xmlns="http://www.w3.org/2000/svg" width="23.514" height="25.672" viewBox="0 0 23.514 25.672">
  <g id="eta_not_confirmed" transform="translate(-60.391 -370)">
    <line id="Line_9" data-name="Line 9" x1="6.465" y2="6.465" transform="translate(72.412 377.5)" fill="none" stroke="#689d43" stroke-linecap="round" stroke-width="1"/>
    <line id="Line_10" data-name="Line 10" x1="6.465" y2="6.465" transform="translate(61.099 388.5)" fill="none" stroke="#689d43" stroke-linecap="round" stroke-width="1"/>
    <path id="Path_18" data-name="Path 18" d="M22.376,17.639l-3.033-.346a2.377,2.377,0,0,0-1.958.681l-2.2,2.2a17.967,17.967,0,0,1-7.87-7.87l2.209-2.209a2.377,2.377,0,0,0,.681-1.958L9.861,5.124A2.39,2.39,0,0,0,7.485,3.01H5.419A2.37,2.37,0,0,0,3.031,5.482,20.291,20.291,0,0,0,22.006,24.457a2.37,2.37,0,0,0,2.472-2.388V20A2.367,2.367,0,0,0,22.376,17.639Z" transform="translate(59.428 366.99)" fill="#689d43"/>
  </g>
</svg>
