<svg id="Help_Center" data-name="Help Center" xmlns="http://www.w3.org/2000/svg" width="53" height="53" viewBox="0 0 53 53">
  <path id="Path_94" data-name="Path 94" d="M0,0H53V53H0Z" fill="none"/>
  <path id="Path_95" data-name="Path 95" d="M24.083,2A22.083,22.083,0,1,0,46.167,24.083,22.091,22.091,0,0,0,24.083,2Zm2.208,37.542H21.875V35.125h4.417Zm4.571-17.115-1.988,2.032a7.734,7.734,0,0,0-2.3,3.732,10.13,10.13,0,0,0-.287,2.518H21.875V29.6a8.934,8.934,0,0,1,.486-2.893,8.827,8.827,0,0,1,2.1-3.357L27.2,20.572A4.335,4.335,0,0,0,28.412,16.6a4.4,4.4,0,0,0-3.07-3.379,4.453,4.453,0,0,0-5.455,2.8,1.95,1.95,0,0,1-1.811,1.435h-.663A1.913,1.913,0,0,1,15.6,14.985a8.85,8.85,0,0,1,7.133-6.25,8.983,8.983,0,0,1,8.546,3.975C33.888,16.31,33.115,20.175,30.863,22.427Z" transform="translate(2.417 2.417)" fill="#fff"/>
</svg>
