<svg xmlns="http://www.w3.org/2000/svg" width="58" height="58" viewBox="0 0 58 58">
  <g id="load_prev_button" transform="translate(335 647) rotate(180)">
    <g id="Rectangle_230" data-name="Rectangle 230" transform="translate(277 589)" fill="none" stroke="#689d43" stroke-width="1">
      <rect width="58" height="58" rx="29" stroke="none"/>
      <rect x="0.5" y="0.5" width="57" height="57" rx="28.5" fill="none"/>
    </g>
    <path id="Union_1" data-name="Union 1" d="M443.032-3815.616a1.775,1.775,0,0,1,0-2.513l6.917-6.917-6.917-6.917a1.775,1.775,0,0,1,0-2.513,1.79,1.79,0,0,1,2.513-.018l8.183,8.182a1.777,1.777,0,0,1,0,2.514l-8.183,8.182a1.77,1.77,0,0,1-1.257.522A1.77,1.77,0,0,1,443.032-3815.616Zm-11.511,0a1.775,1.775,0,0,1,0-2.513l6.918-6.917-6.918-6.917a1.775,1.775,0,0,1,0-2.513,1.791,1.791,0,0,1,2.514-.018l8.182,8.182a1.777,1.777,0,0,1,0,2.514l-8.182,8.182a1.771,1.771,0,0,1-1.257.522A1.773,1.773,0,0,1,431.521-3815.616Z" transform="translate(-135 4443)" fill="#689d43"/>
  </g>
</svg>
