<svg xmlns="http://www.w3.org/2000/svg" width="100" height="100" viewBox="0 0 100 100">
  <g id="location_button_2x" transform="translate(-229 -313)">
    <g id="Rectangle_176" data-name="Rectangle 176" transform="translate(229 313)" fill="#fff" stroke="#689d43" stroke-width="1">
      <rect width="100" height="100" rx="50" stroke="none"/>
      <rect x="0.5" y="0.5" width="99" height="99" rx="49.5" fill="none"/>
    </g>
    <g id="round-location_on-24px" transform="translate(254 338)">
      <path id="Path_15" data-name="Path 15" d="M0,0H49.539V49.539H0Z" fill="none"/>
      <path id="Path_16" data-name="Path 16" d="M19.634,2A14.561,14.561,0,0,0,5,16.509c0,8.643,9.24,20.562,13.045,25.1a2.087,2.087,0,0,0,3.2,0c3.784-4.539,13.024-16.458,13.024-25.1A14.561,14.561,0,0,0,19.634,2Zm0,19.691a5.182,5.182,0,1,1,5.226-5.182A5.206,5.206,0,0,1,19.634,21.691Z" transform="translate(5.135 2.054)" fill="#689d43"/>
    </g>
  </g>
</svg>
