<svg id="location" xmlns="http://www.w3.org/2000/svg" width="18.951" height="18.951" viewBox="0 0 18.951 18.951">
  <path id="Path_15" data-name="Path 15" d="M0,0H18.951V18.951H0Z" fill="none"/>
  <path id="Path_16" data-name="Path 16" d="M10.6,2A5.57,5.57,0,0,0,5,7.55c0,3.306,3.535,7.866,4.99,9.6a.8.8,0,0,0,1.224,0c1.448-1.736,4.982-6.3,4.982-9.6A5.57,5.57,0,0,0,10.6,2Zm0,7.533a1.982,1.982,0,1,1,2-1.982A1.992,1.992,0,0,1,10.6,9.533Z" transform="translate(-1.123 -0.449)" fill="#689d43"/>
</svg>
