<svg xmlns="http://www.w3.org/2000/svg" width="53" height="53.003" viewBox="0 0 53 53.003">
  <g id="logout" data-name="logout" transform="translate(-0.014)">
    <g id="Group_990" data-name="Group 990" transform="translate(0.014)">
      <g id="Group_989" data-name="Group 989" transform="translate(0)">
        <path id="Path_194" data-name="Path 194" d="M320.594,157.328a2.233,2.233,0,0,0-.479-.72l-6.623-6.623a2.208,2.208,0,1,0-3.123,3.123l2.856,2.856H300.888a2.208,2.208,0,0,0,0,4.417h12.336l-2.856,2.856a2.208,2.208,0,1,0,3.123,3.123l6.623-6.623a2.187,2.187,0,0,0,.479-.72A2.211,2.211,0,0,0,320.594,157.328Z" transform="translate(-267.762 -133.879)" fill="#fff"/>
        <path id="Path_195" data-name="Path 195" d="M37.558,30.918a2.208,2.208,0,0,0-2.208,2.208V44.169H26.515V8.834a2.211,2.211,0,0,0-1.575-2.116l-7.67-2.3H35.349V15.459a2.208,2.208,0,0,0,4.417,0V2.209A2.208,2.208,0,0,0,37.558,0H2.222a1.968,1.968,0,0,0-.227.042,2.181,2.181,0,0,0-.936.327C1.01.4.95.4.9.437.886.451.88.475.862.488a2.188,2.188,0,0,0-.587.7,1.8,1.8,0,0,0-.062.186,2.1,2.1,0,0,0-.174.517,1.375,1.375,0,0,0,.007.192c0,.044-.031.084-.031.128V46.377A2.207,2.207,0,0,0,1.79,48.542l22.084,4.417a2.055,2.055,0,0,0,.433.044,2.21,2.21,0,0,0,2.208-2.209V48.586H37.558a2.208,2.208,0,0,0,2.208-2.208V33.127A2.208,2.208,0,0,0,37.558,30.918Z" transform="translate(-0.014)" fill="#fff"/>
      </g>
    </g>
  </g>
</svg>
