<svg id="more_horiz-24px" xmlns="http://www.w3.org/2000/svg" width="29.71" height="29.71" viewBox="0 0 29.71 29.71">
  <path id="Path_184" data-name="Path 184" d="M0,0H29.71V29.71H0Z" fill="none"/>
  <path id="Path_185" data-name="Path 185" d="M6.714,10C5.221,10,4,10.9,4,12s1.221,2,2.714,2,2.714-.9,2.714-2S8.206,10,6.714,10ZM23,10c-1.493,0-2.714.9-2.714,2S21.5,14,23,14s2.714-.9,2.714-2S24.489,10,23,10Zm-8.141,0c-1.493,0-2.714.9-2.714,2s1.221,2,2.714,2,2.714-.9,2.714-2S16.348,10,14.855,10Z" transform="translate(0 2.855)"/>
</svg>
