<svg xmlns="http://www.w3.org/2000/svg" width="25.378" height="25.085" viewBox="0 0 25.378 25.085">
  <path id="Notification_-_Icon" data-name="Notification - Icon" d="M21.731,19.174V13c0-3.792-2.025-6.966-5.558-7.806v-.84A1.861,1.861,0,0,0,14.308,2.5a1.84,1.84,0,0,0-1.84,1.853v.84c-3.545.84-5.558,4-5.558,7.806v6.176L5.3,20.767a1.235,1.235,0,0,0,.865,2.112H22.435a1.239,1.239,0,0,0,.877-2.112Zm-7.423,7.411a2.477,2.477,0,0,0,2.47-2.47h-4.94A2.469,2.469,0,0,0,14.308,26.585ZM7.861,5.254A1.217,1.217,0,0,0,7.9,3.488a1.234,1.234,0,0,0-1.717-.025,12.875,12.875,0,0,0-4.039,7.485,1.248,1.248,0,0,0,1.235,1.433,1.231,1.231,0,0,0,1.21-1.025A10.425,10.425,0,0,1,7.861,5.254ZM22.472,3.463a1.249,1.249,0,0,0-1.729.025,1.213,1.213,0,0,0,.037,1.754,10.493,10.493,0,0,1,3.273,6.1,1.212,1.212,0,0,0,1.21,1.025,1.24,1.24,0,0,0,1.223-1.433,12.954,12.954,0,0,0-4.014-7.472Z" transform="translate(-1.627 -2)" fill="none" stroke="#1d1c28" stroke-width="1"/>
</svg>
