<svg xmlns="http://www.w3.org/2000/svg" width="23.999" height="29.332" viewBox="0 0 23.999 29.332">
  <g id="Password_-_Lock" data-name="Password - Lock" transform="translate(-36.548)">
    <path id="Path_122" data-name="Path 122" d="M59.963,13.916a1.929,1.929,0,0,0-1.417-.583H57.88v-4A8.981,8.981,0,0,0,55.13,2.75a9.254,9.254,0,0,0-13.166,0,8.981,8.981,0,0,0-2.75,6.583v4h-.667a1.991,1.991,0,0,0-2,2v12a1.991,1.991,0,0,0,2,2h20a1.991,1.991,0,0,0,2-2v-12A1.927,1.927,0,0,0,59.963,13.916Zm-6.083-.583H43.214v-4a5.138,5.138,0,0,1,1.562-3.771,5.332,5.332,0,0,1,7.541,0A5.139,5.139,0,0,1,53.88,9.333Z" fill="#689d43"/>
  </g>
</svg>
