<svg id="phone" xmlns="http://www.w3.org/2000/svg" width="15.946" height="15.947" viewBox="0 0 15.946 15.947">
  <path id="Path_17" data-name="Path 17" d="M0,0H15.947V15.947H0Z" fill="none"/>
  <path id="Path_18" data-name="Path 18" d="M15,12.061l-1.877-.214a1.471,1.471,0,0,0-1.212.421l-1.36,1.36A11.116,11.116,0,0,1,5.682,8.758L7.048,7.391A1.471,1.471,0,0,0,7.47,6.18L7.255,4.318A1.479,1.479,0,0,0,5.785,3.01H4.507A1.466,1.466,0,0,0,3.029,4.539,12.554,12.554,0,0,0,14.77,16.28,1.466,1.466,0,0,0,16.3,14.8V13.524A1.464,1.464,0,0,0,15,12.061Z" transform="translate(-1.686 -1.677)" fill="#689d43"/>
</svg>
