<svg id="photos_grid" xmlns="http://www.w3.org/2000/svg" width="50.119" height="50.119" viewBox="0 0 50.119 50.119">
  <path id="Path_144" data-name="Path 144" d="M0,0H50.119V50.119H0Z" fill="none"/>
  <path id="Path_145" data-name="Path 145" d="M42.766,3H5.177A4.491,4.491,0,0,0,1,7.177V36.412a4.189,4.189,0,0,0,4.177,4.177H42.766a4.491,4.491,0,0,0,4.177-4.177V7.177A4.491,4.491,0,0,0,42.766,3Zm-32.1,27.544,5.2-6.682a1.043,1.043,0,0,1,1.629-.021l4.385,5.283,6.474-8.332a1.048,1.048,0,0,1,1.671.021l7.33,9.773a1.044,1.044,0,0,1-.835,1.671H11.483A1.064,1.064,0,0,1,10.669,30.544Z" transform="translate(1.088 3.265)" fill="#fff"/>
</svg>
