<svg xmlns="http://www.w3.org/2000/svg" xmlns:svgjs="http://svgjs.com/svgjs" xmlns:xlink="http://www.w3.org/1999/xlink" width="288" height="288"><svg xmlns="http://www.w3.org/2000/svg" width="288" height="288" version="1.0" viewBox="0 0 300 433"><path fill="#fff" d="M1441 4174 c-352 -59 -642 -274 -802 -593 -158 -317 -177 -747 -49-1126 17 -49 30 -90 30 -92 0 -2 -81 -3 -180 -3 l-180 0 0 -255 0 -255 244 0
c224 0 245 -1 250 -17 35 -124 40 -345 12 -478 -38 -174 -113 -322 -216 -426
-71 -71 -214 -170 -355 -245 -49 -26 -91 -48 -92 -49 -2 -1 21 -55 50 -121 30
-65 75 -174 102 -241 l48 -122 59 30 c135 68 385 134 622 165 95 12 179 15
320 12 169 -4 213 -9 381 -42 256 -50 377 -66 520 -66 237 0 387 32 582 125
93 44 114 58 109 72 -2 10 -14 52 -26 93 -21 76 -110 349 -117 362 -2 4 -46
-14 -98 -38 -52 -25 -138 -56 -192 -70 -89 -23 -111 -25 -243 -21 -131 4 -162
9 -320 50 -289 74 -331 81 -485 81 -132 0 -245 -17 -329 -50 -14 -5 -8 9 23
55 60 88 127 233 152 326 38 145 35 420 -8 592 l-5 23 363 2 364 3 3 252 2
253 -422 2 -421 3 -29 100 c-64 221 -81 336 -82 525 -1 199 9 254 71 380 92
189 302 302 563 302 248 0 424 -138 531 -416 17 -44 36 -104 42 -133 7 -31 16
-53 24 -53 17 0 341 66 408 83 l50 12 -3 64 c-5 138 -67 323 -158 469 -89 143
-262 300 -412 376 -196 99 -472 138 -701 100z" class="color000 svgShape" transform="matrix(.1 0 0 -.1 0 433)"/></svg></svg>