<svg xmlns="http://www.w3.org/2000/svg" width="13.607" height="13.475" viewBox="0 0 13.607 13.475">
  <g id="receipt" transform="translate(0 -0.293)">
    <path id="Path_105" data-name="Path 105" d="M13.607,1.2A.908.908,0,0,0,12.7.293H.907A.905.905,0,0,0,.68,2.075v.713a.227.227,0,0,1,.227-.227h.454a.227.227,0,1,1,0,.454H.907A.227.227,0,0,1,.68,2.788v10.3l.68-.68,1.361,1.361,1.361-1.361,1.361,1.361L6.8,12.407l1.361,1.361,1.361-1.361,1.361,1.361,1.361-1.361.68.68V2.788a.227.227,0,0,1-.227.227h-.454a.227.227,0,1,1,0-.454H12.7a.227.227,0,0,1,.227.227V2.075A.906.906,0,0,0,13.607,1.2ZM7.031,7.777a.227.227,0,1,1,0,.454H6.577a.227.227,0,1,1,0-.454ZM6.577,6.416a.233.233,0,0,1,.066-.161.237.237,0,0,1,.322,0,.23.23,0,0,1,0,.322.23.23,0,0,1-.322,0A.234.234,0,0,1,6.577,6.416Zm0-1.361a.227.227,0,1,1,0-.454h3.4a.227.227,0,0,1,0,.454ZM7,2.788a.227.227,0,0,1,.227-.227H8.06a.227.227,0,1,1,0,.454H7.222A.227.227,0,0,1,7,2.788Zm1.675,0A.227.227,0,0,1,8.9,2.561h.837a.227.227,0,1,1,0,.454H8.9A.227.227,0,0,1,8.67,2.788Zm-6.7,0A.227.227,0,0,1,2.2,2.561h.837a.227.227,0,1,1,0,.454H2.2A.227.227,0,0,1,1.971,2.788ZM4.536,6.416a.227.227,0,0,1-.227-.227.679.679,0,0,0-.454-.639V6.784l.506.393a.827.827,0,0,1,.314.564.781.781,0,0,1-.18.591,1.132,1.132,0,0,1-.639.378v.2a.227.227,0,1,1-.454,0v-.2A1.136,1.136,0,0,1,2.495,7.6a.227.227,0,0,1,.454,0,.679.679,0,0,0,.454.639V7.006L2.9,6.613a.827.827,0,0,1-.314-.565.78.78,0,0,1,.18-.59A1.131,1.131,0,0,1,3.4,5.079v-.25a.227.227,0,0,1,.454,0v.25A1.136,1.136,0,0,1,4.763,6.19.227.227,0,0,1,4.536,6.416Zm.175-3.4H3.873a.227.227,0,1,1,0-.454H4.71a.227.227,0,1,1,0,.454Zm.61-.227a.227.227,0,0,1,.227-.227h.837a.227.227,0,1,1,0,.454H5.548A.227.227,0,0,1,5.321,2.788ZM9.979,9.818h-3.4a.227.227,0,1,1,0-.454h3.4a.227.227,0,0,1,0,.454ZM7.711,8A.227.227,0,0,1,8.1,7.843.23.23,0,0,1,8.164,8a.234.234,0,0,1-.066.161A.227.227,0,0,1,7.711,8Zm3.563,1.749a.227.227,0,0,1-.388-.161.233.233,0,0,1,.066-.161.237.237,0,0,1,.322,0,.233.233,0,0,1,.066.161A.238.238,0,0,1,11.274,9.752Zm-.161-1.522H8.845a.227.227,0,0,1,0-.454h2.268a.227.227,0,0,1,0,.454Zm0-1.588h-3.4a.227.227,0,0,1,0-.454h3.4a.227.227,0,0,1,0,.454Zm.161-1.653a.234.234,0,0,1-.161.066.225.225,0,0,1-.227-.227.233.233,0,0,1,.066-.161.228.228,0,0,1,.322.322Zm.136-1.975h-.837a.227.227,0,1,1,0-.454h.837a.227.227,0,1,1,0,.454Zm1.518-1.422V.973H.68v.619A.453.453,0,0,1,.907.747H12.7a.453.453,0,0,1,.227.846Z" fill="#689d43"/>
    <path id="Path_106" data-name="Path 106" d="M13.37,23.952a.39.39,0,0,0,.148.266l.238.185v-.92a.709.709,0,0,0-.307.208A.345.345,0,0,0,13.37,23.952Z" transform="translate(-10.34 -17.948)" fill="#689d43"/>
    <path id="Path_107" data-name="Path 107" d="M17,32.369a.709.709,0,0,0,.307-.208.346.346,0,0,0,.079-.262.389.389,0,0,0-.148-.265L17,31.449Z" transform="translate(-13.15 -24.113)" fill="#689d43"/>
  </g>
</svg>
