<svg xmlns="http://www.w3.org/2000/svg" width="11.719" height="11.719" viewBox="0 0 11.719 11.719">
  <path id="Reports" d="M6.172,8.516h.167A1.175,1.175,0,0,1,7.511,9.688v5.859a1.175,1.175,0,0,1-1.172,1.172H6.172A1.175,1.175,0,0,1,5,15.547V9.687A1.175,1.175,0,0,1,6.172,8.516ZM10.859,5a1.175,1.175,0,0,1,1.172,1.172v9.375a1.172,1.172,0,1,1-2.344,0V6.172A1.175,1.175,0,0,1,10.859,5Zm4.688,6.7a1.175,1.175,0,0,1,1.172,1.172v2.679a1.172,1.172,0,0,1-2.344,0V12.868A1.175,1.175,0,0,1,15.547,11.7Z" transform="translate(-5 -5)" fill="#1d1c28"/>
</svg>
