<svg id="reschedule_grid" xmlns="http://www.w3.org/2000/svg" width="49.277" height="49.277" viewBox="0 0 49.277 49.277">
  <path id="Path_108" data-name="Path 108" d="M0,0H49.277V49.277H0Z" fill="none"/>
  <path id="Path_109" data-name="Path 109" d="M24.756,2a22.779,22.779,0,1,0,22.8,22.779A22.768,22.768,0,0,0,24.756,2Zm.023,41A18.223,18.223,0,1,1,43,24.779,18.218,18.218,0,0,1,24.779,43Zm-.5-29.613h-.137a1.633,1.633,0,0,0-1.64,1.64V25.781a2.255,2.255,0,0,0,1.116,1.959l9.453,5.672a1.629,1.629,0,1,0,1.663-2.8l-8.816-5.239V15.03a1.633,1.633,0,0,0-1.64-1.64Z" transform="translate(-0.14 -0.14)" fill="#fff"/>
</svg>
