<svg xmlns="http://www.w3.org/2000/svg" width="30.51" height="30.51" viewBox="0 0 30.51 30.51">
  <g id="review_quote" transform="translate(0 0)">
    <path id="Path_170" data-name="Path 170" d="M0,0H30.51V30.51H0Z" fill="none"/>
    <path id="Path_171" data-name="Path 171" d="M24.882,2H4.542A2.55,2.55,0,0,0,2,4.542V27.425L7.085,22.34h17.8A2.55,2.55,0,0,0,27.425,19.8V4.542A2.55,2.55,0,0,0,24.882,2ZM7.085,17.255v-3.14l8.746-8.746a.629.629,0,0,1,.9,0l2.25,2.25a.629.629,0,0,1,0,.9l-8.759,8.733Zm13.984,0H12.806l2.542-2.542h5.721a1.271,1.271,0,1,1,0,2.542Z" transform="translate(0.542 0.542)" fill="#689d43"/>
  </g>
</svg>
