<svg id="round-settings-24px" xmlns="http://www.w3.org/2000/svg" width="53" height="52.999" viewBox="0 0 53 52.999">
  <path id="Path_27" data-name="Path 27" d="M0,0H53V53H0Z" fill="none"/>
  <path id="Path_28" data-name="Path 28" d="M38.393,25.277a16.635,16.635,0,0,0,.147-2.078,16.635,16.635,0,0,0-.147-2.078l4.442-3.5a1.075,1.075,0,0,0,.253-1.357l-4.21-7.335a1.055,1.055,0,0,0-1.284-.466l-5.242,2.12a15.355,15.355,0,0,0-3.558-2.078l-.8-5.618A1.029,1.029,0,0,0,26.962,2H18.542a1.029,1.029,0,0,0-1.032.89l-.8,5.618a16.147,16.147,0,0,0-3.558,2.078L7.911,8.466a1.024,1.024,0,0,0-1.284.466l-4.21,7.335a1.05,1.05,0,0,0,.253,1.357l4.442,3.5A16.929,16.929,0,0,0,6.964,23.2a16.929,16.929,0,0,0,.147,2.078l-4.442,3.5a1.075,1.075,0,0,0-.253,1.357l4.21,7.335a1.055,1.055,0,0,0,1.284.466l5.242-2.12a15.355,15.355,0,0,0,3.558,2.078l.8,5.618a1.029,1.029,0,0,0,1.032.89h8.421a1.029,1.029,0,0,0,1.032-.89l.8-5.618a16.147,16.147,0,0,0,3.558-2.078l5.242,2.12a1.024,1.024,0,0,0,1.284-.466l4.21-7.335a1.075,1.075,0,0,0-.253-1.357ZM22.752,30.62A7.42,7.42,0,1,1,30.12,23.2,7.4,7.4,0,0,1,22.752,30.62Z" transform="translate(3.747 3.3)" fill="#fff"/>
</svg>
