<svg id="round-home-24px" xmlns="http://www.w3.org/2000/svg" width="23.438" height="23.438" viewBox="0 0 23.438 23.438">
  <path id="Path_23" data-name="Path 23" d="M0,0H23.438V23.438H0Z" fill="none"/>
  <path id="Path_24" data-name="Path 24" d="M9.4,17.285V12.833h3.668v4.452a.907.907,0,0,0,.917.89H16.74a.907.907,0,0,0,.917-.89V11.052h1.559a.44.44,0,0,0,.3-.775l-7.667-6.7a.945.945,0,0,0-1.229,0l-7.667,6.7a.442.442,0,0,0,.3.775H4.818v6.233a.907.907,0,0,0,.917.89H8.486A.907.907,0,0,0,9.4,17.285Z" transform="translate(0.482 0.575)" fill="#000000"/>
</svg>
