<svg id="round-payment-24px" xmlns="http://www.w3.org/2000/svg" width="53" height="52.999" viewBox="0 0 53 52.999">
  <path id="Path_25" data-name="Path 25" d="M0,0H53V53H0Z" fill="none"/>
  <path id="Path_26" data-name="Path 26" d="M40.16,4H6.24A4.081,4.081,0,0,0,2.021,7.975L2,31.825A4.1,4.1,0,0,0,6.24,35.8H40.16a4.1,4.1,0,0,0,4.24-3.975V7.975A4.1,4.1,0,0,0,40.16,4ZM38.04,31.825H8.36a2.063,2.063,0,0,1-2.12-1.987V19.9H40.16v9.937A2.063,2.063,0,0,1,38.04,31.825ZM40.16,11.95H6.24V9.962A2.063,2.063,0,0,1,8.36,7.975H38.04a2.063,2.063,0,0,1,2.12,1.987Z" transform="translate(3.3 6.6)" fill="#fff"/>
</svg>
