<svg id="round-work-24px" xmlns="http://www.w3.org/2000/svg" width="23.438" height="23.438" viewBox="0 0 23.438 23.438">
  <path id="Path_29" data-name="Path 29" d="M0,0H23.438V23.438H0Z" fill="none"/>
  <path id="Path_30" data-name="Path 30" d="M18.875,5.7h-3.75V3.85A1.856,1.856,0,0,0,13.25,2H9.5A1.856,1.856,0,0,0,7.625,3.85V5.7H3.875a1.848,1.848,0,0,0-1.866,1.85L2,17.728a1.856,1.856,0,0,0,1.875,1.85h15a1.856,1.856,0,0,0,1.875-1.85V7.551A1.856,1.856,0,0,0,18.875,5.7Zm-5.625,0H9.5V3.85h3.75Z" transform="translate(0.344 0.344)" fill="#1d1c28"/>
</svg>
