<svg id="round-bar_chart-24px" xmlns="http://www.w3.org/2000/svg" width="81.753" height="81.752" viewBox="0 0 81.753 81.752">
  <path id="Path_21" data-name="Path 21" d="M0,0H81.753V81.752H0Z" fill="none"/>
  <path id="Path_22" data-name="Path 22" d="M9.088,17.263h.584a4.1,4.1,0,0,1,4.088,4.088V41.789a4.1,4.1,0,0,1-4.088,4.088H9.088A4.1,4.1,0,0,1,5,41.789V21.35a4.1,4.1,0,0,1,4.088-4.088ZM25.438,5a4.1,4.1,0,0,1,4.088,4.088v32.7a4.088,4.088,0,0,1-8.175,0V9.088A4.1,4.1,0,0,1,25.438,5ZM41.789,28.358a4.1,4.1,0,0,1,4.088,4.088v9.343a4.088,4.088,0,0,1-8.175,0V32.445a4.1,4.1,0,0,1,4.088-4.088Z" transform="translate(15.438 15.438)" fill="#fff"/>
</svg>
