<svg xmlns="http://www.w3.org/2000/svg" width="70" height="70" viewBox="0 0 70 70">
  <g id="save_button" transform="translate(-57 -567)">
    <rect id="Rectangle_175" data-name="Rectangle 175" width="70" height="70" rx="35" transform="translate(57 567)" fill="#689d43"/>
    <g id="round-save_alt-24px" transform="translate(78.32 588.32)">
      <path id="Path_168" data-name="Path 168" d="M0,0H27.606V27.606H0Z" fill="none"/>
      <path id="Path_169" data-name="Path 169" d="M21.4,14.5v5.751a1.154,1.154,0,0,1-1.15,1.15H6.451a1.154,1.154,0,0,1-1.15-1.15V14.5a1.15,1.15,0,0,0-2.3,0v6.9a2.307,2.307,0,0,0,2.3,2.3H21.4a2.307,2.307,0,0,0,2.3-2.3V14.5a1.15,1.15,0,0,0-2.3,0Zm-6.9-.38,2.163-2.163a1.147,1.147,0,1,1,1.622,1.622l-4.129,4.129a1.146,1.146,0,0,1-1.622,0L8.406,13.582a1.147,1.147,0,1,1,1.622-1.622L12.2,14.123V4.15a1.15,1.15,0,0,1,2.3,0Z" transform="translate(0.451 0.451)" fill="#fff"/>
    </g>
  </g>
</svg>
