<svg id="Schedule_-_Icon" data-name="Schedule - Icon" xmlns="http://www.w3.org/2000/svg" width="53" height="53" viewBox="0 0 53 53">
  <path id="Path_108" data-name="Path 108" d="M0,0H53V53H0Z" fill="none"/>
  <path id="Path_109" data-name="Path 109" d="M26.475,2A24.5,24.5,0,1,0,51,26.5,24.488,24.488,0,0,0,26.475,2ZM26.5,46.1A19.6,19.6,0,1,1,46.1,26.5,19.595,19.595,0,0,1,26.5,46.1Zm-.539-31.85h-.147a1.757,1.757,0,0,0-1.764,1.764V27.578a2.426,2.426,0,0,0,1.2,2.107l10.168,6.1a1.752,1.752,0,1,0,1.789-3.014l-9.482-5.635V16.014a1.757,1.757,0,0,0-1.764-1.764Z" transform="translate(0 0)" fill="#fff"/>
</svg>
