<svg xmlns="http://www.w3.org/2000/svg" width="60" height="60" viewBox="0 0 60 60">
  <g id="send_button_small" transform="translate(-84 -456)">
    <rect id="Rectangle_176" data-name="Rectangle 176" width="60" height="60" rx="30" transform="translate(84 456)" fill="#689d43"/>
    <path id="Path_175" data-name="Path 175" d="M3.655,23.7l20.634-8.941a1.2,1.2,0,0,0,0-2.2L3.655,3.617A1.175,1.175,0,0,0,2.012,4.7L2,10.215A1.184,1.184,0,0,0,3.029,11.4l16.708,2.259L3.029,15.9A1.205,1.205,0,0,0,2,17.1l.012,5.51A1.175,1.175,0,0,0,3.655,23.7Z" transform="translate(100.189 472.332)" fill="#fff"/>
  </g>
</svg>
