<svg xmlns="http://www.w3.org/2000/svg" width="53" height="53" viewBox="0 0 53 53">
  <g id="set_eta" transform="translate(-291 -621)">
    <rect id="Rectangle_205" data-name="Rectangle 205" width="53" height="53" rx="26.5" transform="translate(291 621)" fill="#fff"/>
    <g id="round-access_time-24px" transform="translate(301 631)">
      <path id="Path_108" data-name="Path 108" d="M0,0H33V33H0Z" fill="none"/>
      <path id="Path_109" data-name="Path 109" d="M17.239,2a15.255,15.255,0,1,0,15.27,15.255A15.247,15.247,0,0,0,17.239,2Zm.015,27.458a12.2,12.2,0,1,1,12.2-12.2A12.2,12.2,0,0,1,17.255,29.458ZM16.919,9.627h-.092a1.094,1.094,0,0,0-1.1,1.1v7.2a1.51,1.51,0,0,0,.747,1.312l6.331,3.8a1.091,1.091,0,1,0,1.114-1.876l-5.9-3.509V10.726a1.094,1.094,0,0,0-1.1-1.1Z" transform="translate(-0.755 -0.755)" fill="#689d43"/>
    </g>
  </g>
</svg>
