<svg xmlns="http://www.w3.org/2000/svg" width="18.11" height="18.75" viewBox="0 0 18.11 18.75">
  <path id="Settings" d="M18.245,12.294a7.357,7.357,0,0,0,.065-.919,7.357,7.357,0,0,0-.065-.919l1.964-1.547a.475.475,0,0,0,.112-.6L18.459,5.066a.466.466,0,0,0-.568-.206L15.573,5.8A6.79,6.79,0,0,0,14,4.878l-.354-2.484A.455.455,0,0,0,13.19,2H9.466a.455.455,0,0,0-.456.394L8.656,4.878A7.14,7.14,0,0,0,7.083,5.8L4.765,4.859a.453.453,0,0,0-.568.206L2.335,8.309a.464.464,0,0,0,.112.6l1.964,1.547a7.487,7.487,0,0,0-.065.919,7.487,7.487,0,0,0,.065.919L2.447,13.841a.475.475,0,0,0-.112.6L4.2,17.684a.466.466,0,0,0,.568.206l2.318-.937a6.79,6.79,0,0,0,1.573.919l.354,2.484a.455.455,0,0,0,.456.394H13.19a.455.455,0,0,0,.456-.394L14,17.872a7.14,7.14,0,0,0,1.573-.919l2.318.937a.453.453,0,0,0,.568-.206l1.862-3.244a.475.475,0,0,0-.112-.6Zm-6.917,2.363a3.281,3.281,0,1,1,3.258-3.281A3.273,3.273,0,0,1,11.328,14.656Z" transform="translate(-2.271 -2)" fill="#1d1c28"/>
</svg>
