<svg xmlns="http://www.w3.org/2000/svg" width="41.765" height="46.045" viewBox="0 0 41.765 46.045">
  <g id="signing-a-document" transform="translate(-20.746 -7.5)">
    <path id="Path_160" data-name="Path 160" d="M53.635,51.352h-30.7v-30.7h9.97a1.1,1.1,0,0,0,1.1-1.1V9.693H53.635v4.725c.048-.006.1-.019.146-.021a5.337,5.337,0,0,1,1.568.2c.147.038.31.092.479.151V8.6a1.1,1.1,0,0,0-1.1-1.1H32.806a1.1,1.1,0,0,0-.776.321L21.067,18.784a1.094,1.094,0,0,0-.321.774V52.45a1.1,1.1,0,0,0,1.1,1.1h32.89a1.1,1.1,0,0,0,1.1-1.1v-17a3.287,3.287,0,0,1-2.193.931V51.352Z" fill="#689d43"/>
    <path id="Path_161" data-name="Path 161" d="M254.074,50.083a1.9,1.9,0,0,0-1.315-.69.332.332,0,0,0-.223.1l-2.492,2.492a7.06,7.06,0,0,1,2.131,2.13l2.489-2.491a.331.331,0,0,0,.1-.222A1.906,1.906,0,0,0,254.074,50.083Z" transform="translate(-192.253 -35.125)" fill="#689d43"/>
    <path id="Path_162" data-name="Path 162" d="M116.4,72.5l-1.206,1.206-.8-.8,2.156-2.156a1.059,1.059,0,0,0,.308-.7c.008-.195.018-1.953-2.168-4.139s-3.944-2.176-4.139-2.169a1.061,1.061,0,0,0-.7.309L91.24,82.66a1.034,1.034,0,0,0-.253.412l-2.605,7.815a1.052,1.052,0,0,0,1.331,1.331l7.817-2.606a1.1,1.1,0,0,0,.409-.251l15.677-15.677.8.8-5.008,5.006a1.1,1.1,0,0,0,1.55,1.552l6.99-6.99A1.1,1.1,0,1,0,116.4,72.5Z" transform="translate(-56.663 -47.157)" fill="#689d43"/>
  </g>
</svg>
