<svg xmlns="http://www.w3.org/2000/svg" width="70" height="70" viewBox="0 0 70 70">
  <g id="skip_button" data-name="skip button" transform="translate(-153 -577)">
    <rect id="Rectangle_175" data-name="Rectangle 175" width="70" height="70" rx="35" transform="translate(153 577)" fill="#689d43"/>
    <g id="Group_709" data-name="Group 709" transform="translate(-5.07 -0.49)">
      <path id="Path_132" data-name="Path 132" d="M9.568,6.969a1.875,1.875,0,0,0,0,2.654l7.3,7.3-7.3,7.3a1.877,1.877,0,0,0,2.654,2.654l8.64-8.64a1.875,1.875,0,0,0,0-2.654l-8.64-8.64A1.892,1.892,0,0,0,9.568,6.969Z" transform="translate(173.053 595.075)" fill="#fff"/>
      <path id="Path_164" data-name="Path 164" d="M9.568,6.969a1.875,1.875,0,0,0,0,2.654l7.3,7.3-7.3,7.3a1.877,1.877,0,0,0,2.654,2.654l8.64-8.64a1.875,1.875,0,0,0,0-2.654l-8.64-8.64A1.892,1.892,0,0,0,9.568,6.969Z" transform="translate(183.053 595.075)" fill="#fff"/>
    </g>
  </g>
</svg>
