<svg xmlns="http://www.w3.org/2000/svg" width="52.513" height="52" viewBox="0 0 52.513 52">
  <g id="Submit_Invoice" data-name="Submit Invoice" transform="translate(0 -0.293)">
    <path id="Path_105" data-name="Path 105" d="M52.513,3.794a3.5,3.5,0,0,0-3.5-3.5H3.5A3.493,3.493,0,0,0,2.626,7.17V9.92A.875.875,0,0,1,3.5,9.045h1.75a.875.875,0,1,1,0,1.75H3.5a.875.875,0,0,1-.875-.875V49.667l2.626-2.626L10.5,52.293l5.251-5.251,5.251,5.251,5.251-5.251,5.251,5.251,5.251-5.251,5.251,5.251,5.251-5.251,2.626,2.626V9.92a.875.875,0,0,1-.875.875h-1.75a.875.875,0,1,1,0-1.75h1.75a.875.875,0,0,1,.875.875V7.17A3.5,3.5,0,0,0,52.513,3.794ZM27.132,29.175a.875.875,0,1,1,0,1.75h-1.75a.875.875,0,1,1,0-1.75Zm-1.75-5.251a.9.9,0,0,1,.254-.621.916.916,0,0,1,1.243,0,.888.888,0,0,1,0,1.243.888.888,0,0,1-1.243,0A.9.9,0,0,1,25.381,23.924Zm0-5.251a.875.875,0,1,1,0-1.75H38.509a.875.875,0,0,1,0,1.75ZM27,9.92a.875.875,0,0,1,.875-.875H31.1a.875.875,0,0,1,0,1.75H27.872A.875.875,0,0,1,27,9.92Zm6.463,0a.875.875,0,0,1,.875-.875h3.231a.875.875,0,0,1,0,1.75H34.336A.875.875,0,0,1,33.46,9.92Zm-25.853,0a.875.875,0,0,1,.875-.875h3.231a.875.875,0,1,1,0,1.75H8.483A.875.875,0,0,1,7.607,9.92Zm9.9,14a.875.875,0,0,1-.875-.875,2.622,2.622,0,0,0-1.75-2.465v4.759l1.951,1.518a3.192,3.192,0,0,1,1.21,2.178,3.013,3.013,0,0,1-.694,2.28,4.368,4.368,0,0,1-2.467,1.46v.772a.875.875,0,0,1-1.75,0v-.768a4.384,4.384,0,0,1-3.5-4.288.875.875,0,0,1,1.75,0,2.622,2.622,0,0,0,1.75,2.465V26.2l-1.951-1.518a3.192,3.192,0,0,1-1.21-2.18,3.01,3.01,0,0,1,.695-2.278,4.366,4.366,0,0,1,2.466-1.46V17.8a.875.875,0,0,1,1.75,0v.964a4.384,4.384,0,0,1,3.5,4.288A.875.875,0,0,1,17.5,23.924ZM18.178,10.8H14.947a.875.875,0,1,1,0-1.75h3.231a.875.875,0,1,1,0,1.75Zm2.355-.875a.875.875,0,0,1,.875-.875H24.64a.875.875,0,1,1,0,1.75H21.409A.875.875,0,0,1,20.533,9.92ZM38.509,37.052H25.381a.875.875,0,1,1,0-1.75H38.509a.875.875,0,0,1,0,1.75Zm-8.752-7a.875.875,0,0,1,1.5-.621.886.886,0,0,1,.254.621.9.9,0,0,1-.254.621.875.875,0,0,1-1.5-.621ZM43.507,36.8a.875.875,0,0,1-1.5-.621.9.9,0,0,1,.254-.621.916.916,0,0,1,1.243,0,.9.9,0,0,1,.254.621A.92.92,0,0,1,43.507,36.8Zm-.621-5.873H34.133a.875.875,0,1,1,0-1.75h8.752a.875.875,0,1,1,0,1.75Zm0-6.126H29.757a.875.875,0,0,1,0-1.75H42.886a.875.875,0,0,1,0,1.75Zm.621-6.38a.9.9,0,0,1-.621.254.867.867,0,0,1-.875-.875.9.9,0,0,1,.254-.621.879.879,0,0,1,1.243,1.243ZM44.03,10.8H40.8a.875.875,0,0,1,0-1.75H44.03a.875.875,0,1,1,0,1.75Zm5.857-5.487V2.919H2.626v2.39A1.75,1.75,0,0,1,3.5,2.043H49.012a1.75,1.75,0,0,1,.875,3.265Z" transform="translate(0 0)" fill="#fff"/>
    <path id="Path_106" data-name="Path 106" d="M13.376,25.294a1.5,1.5,0,0,0,.57,1.026l.917.713v-3.55a2.736,2.736,0,0,0-1.183.8A1.331,1.331,0,0,0,13.376,25.294Z" transform="translate(-1.683 -2.959)" fill="#fff"/>
    <path id="Path_107" data-name="Path 107" d="M17,35a2.736,2.736,0,0,0,1.183-.8,1.335,1.335,0,0,0,.3-1.012,1.5,1.5,0,0,0-.57-1.024L17,31.449Z" transform="translate(-2.141 -3.976)" fill="#fff"/>
  </g>
</svg>
