<?xml version="1.0" encoding="UTF-8"?>
<svg xmlns="http://www.w3.org/2000/svg" xmlns:xlink="http://www.w3.org/1999/xlink" width="17pt" height="16pt" viewBox="0 0 17 16" version="1.1">
<g id="surface1">
<path style=" stroke:none;fill-rule:nonzero;fill:rgb(0%,0%,0%);fill-opacity:1;" d="M 16.84375 1.078125 C 16.84375 0.484375 16.339844 0 15.722656 0 L 1.121094 0 C 0.558594 0 0.0820312 0.402344 0.0117188 0.941406 C -0.0625 1.476562 0.296875 1.980469 0.84375 2.117188 L 0.84375 2.960938 C 0.84375 2.8125 0.96875 2.691406 1.121094 2.691406 L 1.683594 2.691406 C 1.839844 2.691406 1.964844 2.8125 1.964844 2.960938 C 1.964844 3.109375 1.839844 3.230469 1.683594 3.230469 L 1.121094 3.230469 C 0.96875 3.230469 0.84375 3.109375 0.84375 2.960938 L 0.84375 15.191406 L 1.683594 14.382812 L 3.367188 16 L 5.050781 14.382812 L 6.738281 16 L 8.421875 14.382812 L 10.105469 16 L 11.789062 14.382812 L 13.472656 16 L 15.15625 14.382812 L 16 15.191406 L 16 2.960938 C 16 3.109375 15.875 3.230469 15.71875 3.230469 L 15.160156 3.230469 C 15.003906 3.230469 14.878906 3.109375 14.878906 2.960938 C 14.878906 2.8125 15.003906 2.691406 15.160156 2.691406 L 15.71875 2.691406 C 15.875 2.691406 16 2.8125 16 2.960938 L 16 2.117188 C 16.496094 1.996094 16.839844 1.566406 16.84375 1.078125 Z M 8.703125 8.886719 C 8.859375 8.886719 8.984375 9.007812 8.984375 9.15625 C 8.984375 9.304688 8.859375 9.425781 8.703125 9.425781 L 8.140625 9.425781 C 7.988281 9.425781 7.859375 9.304688 7.859375 9.15625 C 7.859375 9.007812 7.988281 8.886719 8.140625 8.886719 Z M 8.140625 7.269531 C 8.140625 7.199219 8.171875 7.132812 8.222656 7.078125 C 8.335938 6.980469 8.507812 6.980469 8.621094 7.078125 C 8.730469 7.1875 8.730469 7.355469 8.621094 7.460938 C 8.511719 7.566406 8.332031 7.566406 8.222656 7.460938 C 8.171875 7.410156 8.140625 7.34375 8.140625 7.269531 Z M 8.140625 5.65625 C 7.988281 5.65625 7.859375 5.535156 7.859375 5.386719 C 7.859375 5.238281 7.988281 5.117188 8.140625 5.117188 L 12.351562 5.117188 C 12.507812 5.117188 12.632812 5.238281 12.632812 5.386719 C 12.632812 5.535156 12.507812 5.65625 12.351562 5.65625 Z M 8.660156 2.960938 C 8.660156 2.8125 8.785156 2.691406 8.941406 2.691406 L 9.976562 2.691406 C 10.128906 2.691406 10.257812 2.8125 10.257812 2.960938 C 10.257812 3.109375 10.128906 3.230469 9.976562 3.230469 L 8.941406 3.230469 C 8.785156 3.230469 8.660156 3.109375 8.660156 2.960938 Z M 10.734375 2.960938 C 10.734375 2.8125 10.859375 2.691406 11.015625 2.691406 L 12.050781 2.691406 C 12.207031 2.691406 12.332031 2.8125 12.332031 2.960938 C 12.332031 3.109375 12.207031 3.230469 12.050781 3.230469 L 11.011719 3.230469 C 10.9375 3.230469 10.867188 3.203125 10.816406 3.152344 C 10.761719 3.101562 10.734375 3.035156 10.734375 2.960938 Z M 2.441406 2.960938 C 2.441406 2.8125 2.566406 2.691406 2.722656 2.691406 L 3.757812 2.691406 C 3.914062 2.691406 4.039062 2.8125 4.039062 2.960938 C 4.039062 3.109375 3.914062 3.230469 3.757812 3.230469 L 2.722656 3.230469 C 2.644531 3.230469 2.574219 3.203125 2.523438 3.152344 C 2.46875 3.101562 2.441406 3.035156 2.441406 2.960938 Z M 5.617188 7.269531 C 5.460938 7.269531 5.335938 7.148438 5.335938 7 C 5.335938 6.660156 5.109375 6.355469 4.773438 6.242188 L 4.773438 7.707031 L 5.398438 8.171875 C 5.617188 8.335938 5.757812 8.578125 5.789062 8.84375 C 5.816406 9.097656 5.738281 9.351562 5.566406 9.546875 C 5.363281 9.777344 5.082031 9.933594 4.773438 9.996094 L 4.773438 10.230469 C 4.773438 10.378906 4.648438 10.5 4.492188 10.5 C 4.339844 10.5 4.214844 10.378906 4.214844 10.230469 L 4.214844 9.996094 C 3.558594 9.867188 3.089844 9.316406 3.089844 8.675781 C 3.089844 8.527344 3.214844 8.40625 3.371094 8.40625 C 3.527344 8.40625 3.652344 8.527344 3.652344 8.675781 C 3.652344 9.015625 3.878906 9.320312 4.214844 9.433594 L 4.214844 7.972656 L 3.585938 7.503906 C 3.367188 7.339844 3.226562 7.097656 3.199219 6.832031 C 3.167969 6.582031 3.25 6.328125 3.421875 6.132812 C 3.625 5.902344 3.902344 5.742188 4.214844 5.683594 L 4.214844 5.386719 C 4.214844 5.238281 4.339844 5.117188 4.492188 5.117188 C 4.648438 5.117188 4.773438 5.238281 4.773438 5.386719 L 4.773438 5.683594 C 5.425781 5.8125 5.894531 6.363281 5.898438 7.003906 C 5.898438 7.074219 5.867188 7.144531 5.8125 7.195312 C 5.761719 7.242188 5.6875 7.273438 5.613281 7.269531 Z M 5.832031 3.234375 L 4.792969 3.234375 C 4.640625 3.234375 4.511719 3.113281 4.511719 2.964844 C 4.511719 2.816406 4.640625 2.695312 4.792969 2.695312 L 5.832031 2.695312 C 5.984375 2.695312 6.113281 2.816406 6.113281 2.964844 C 6.113281 3.113281 5.984375 3.234375 5.832031 3.234375 Z M 6.585938 2.964844 C 6.585938 2.816406 6.710938 2.695312 6.867188 2.695312 L 7.902344 2.695312 C 8.058594 2.695312 8.183594 2.816406 8.183594 2.964844 C 8.183594 3.113281 8.058594 3.234375 7.902344 3.234375 L 6.867188 3.234375 C 6.792969 3.234375 6.71875 3.203125 6.667969 3.152344 C 6.613281 3.101562 6.585938 3.035156 6.585938 2.960938 Z M 12.351562 11.308594 L 8.140625 11.308594 C 7.984375 11.308594 7.859375 11.191406 7.859375 11.042969 C 7.859375 10.890625 7.984375 10.773438 8.140625 10.773438 L 12.351562 10.773438 C 12.507812 10.773438 12.632812 10.890625 12.632812 11.042969 C 12.632812 11.191406 12.507812 11.308594 12.351562 11.308594 Z M 9.542969 9.15625 C 9.542969 9.046875 9.613281 8.945312 9.71875 8.90625 C 9.824219 8.863281 9.945312 8.886719 10.027344 8.964844 C 10.078125 9.015625 10.105469 9.085938 10.105469 9.15625 C 10.105469 9.226562 10.078125 9.296875 10.027344 9.347656 C 9.945312 9.425781 9.824219 9.449219 9.71875 9.40625 C 9.613281 9.367188 9.542969 9.265625 9.542969 9.15625 Z M 13.953125 11.234375 C 13.875 11.3125 13.753906 11.335938 13.648438 11.292969 C 13.542969 11.25 13.472656 11.152344 13.472656 11.042969 C 13.472656 10.96875 13.503906 10.902344 13.554688 10.851562 C 13.667969 10.75 13.839844 10.75 13.953125 10.851562 C 14.007812 10.902344 14.035156 10.96875 14.035156 11.042969 C 14.035156 11.113281 14.007812 11.179688 13.953125 11.234375 Z M 13.757812 9.425781 L 10.949219 9.425781 C 10.792969 9.425781 10.667969 9.304688 10.667969 9.15625 C 10.667969 9.007812 10.792969 8.886719 10.949219 8.886719 L 13.753906 8.886719 C 13.910156 8.886719 14.035156 9.007812 14.035156 9.15625 C 14.035156 9.304688 13.910156 9.425781 13.753906 9.425781 Z M 13.757812 7.539062 L 9.542969 7.539062 C 9.390625 7.539062 9.265625 7.421875 9.265625 7.273438 C 9.265625 7.121094 9.390625 7.003906 9.542969 7.003906 L 13.757812 7.003906 C 13.910156 7.003906 14.035156 7.121094 14.035156 7.273438 C 14.035156 7.421875 13.910156 7.539062 13.757812 7.539062 Z M 13.953125 5.578125 C 13.902344 5.628906 13.832031 5.65625 13.757812 5.65625 C 13.679688 5.65625 13.609375 5.628906 13.558594 5.578125 C 13.503906 5.527344 13.472656 5.457031 13.476562 5.386719 C 13.476562 5.316406 13.503906 5.246094 13.558594 5.195312 C 13.667969 5.09375 13.84375 5.09375 13.953125 5.199219 C 14.0625 5.300781 14.0625 5.472656 13.957031 5.578125 Z M 14.121094 3.234375 L 13.085938 3.234375 C 12.933594 3.234375 12.804688 3.113281 12.804688 2.964844 C 12.804688 2.816406 12.933594 2.695312 13.085938 2.695312 L 14.121094 2.695312 C 14.277344 2.695312 14.402344 2.816406 14.402344 2.964844 C 14.402344 3.113281 14.277344 3.234375 14.121094 3.234375 Z M 16 1.542969 L 16 0.808594 L 0.84375 0.808594 L 0.84375 1.542969 C 0.621094 1.421875 0.515625 1.171875 0.582031 0.9375 C 0.644531 0.703125 0.867188 0.539062 1.121094 0.539062 L 15.722656 0.539062 C 15.976562 0.539062 16.195312 0.703125 16.261719 0.9375 C 16.328125 1.171875 16.222656 1.421875 16 1.542969 Z M 16 1.542969 "/>
<path style=" stroke:none;fill-rule:nonzero;fill:rgb(0%,0%,0%);fill-opacity:1;" d="M 3.75 6.78125 C 3.765625 6.90625 3.832031 7.019531 3.933594 7.097656 L 4.226562 7.316406 L 4.226562 6.226562 C 4.082031 6.273438 3.949219 6.359375 3.847656 6.472656 C 3.773438 6.558594 3.738281 6.671875 3.75 6.78125 Z M 3.75 6.78125 "/>
<path style=" stroke:none;fill-rule:nonzero;fill:rgb(0%,0%,0%);fill-opacity:1;" d="M 4.765625 9.457031 C 4.914062 9.40625 5.042969 9.324219 5.144531 9.210938 C 5.222656 9.121094 5.253906 9.011719 5.242188 8.898438 C 5.226562 8.773438 5.160156 8.660156 5.058594 8.582031 L 4.765625 8.363281 Z M 4.765625 9.457031 "/>
</g>
</svg>
