<svg xmlns="http://www.w3.org/2000/svg" width="375" height="812" viewBox="0 0 375 812">
  <path id="Subtraction_11" data-name="Subtraction 11" d="M337,812H38A38.043,38.043,0,0,1,0,774V38A38.043,38.043,0,0,1,38,0H78.263a6.812,6.812,0,0,1,5.23,5.17c.164.724.336,1.671.535,2.766.383,2.109.858,4.725,1.566,7.368.915,3.42,4.955,14.588,18.529,14.728,5.12.053,37.044.064,62.923.064,47.606,0,102.231-.038,104.786-.064,13.574-.14,17.614-11.308,18.529-14.728.709-2.649,1.185-5.268,1.567-7.373.2-1.1.371-2.042.534-2.761A6.592,6.592,0,0,1,297.647,0H337a38.043,38.043,0,0,1,38,38V774A38.043,38.043,0,0,1,337,812Z" fill="#fff"/>
</svg>
