<svg id="symbol" xmlns="http://www.w3.org/2000/svg" width="20.492" height="39.549" viewBox="0 0 20.492 39.549">
  <path id="Path_120" data-name="Path 120" d="M132.4,17.965a47.614,47.614,0,0,0-4.836-2.189,10.857,10.857,0,0,1-2.655-1.487,2.309,2.309,0,0,1,.572-4.109,4.66,4.66,0,0,1,1.625-.335,12.338,12.338,0,0,1,6.11,1.209c.964.466,1.282.319,1.609-.686.343-1.062.629-2.14.947-3.21a1.121,1.121,0,0,0-.727-1.495,15.532,15.532,0,0,0-3.855-1.152c-1.748-.27-1.748-.278-1.756-2.034C129.425,0,129.425,0,126.942,0c-.359,0-.719-.008-1.078,0-1.16.033-1.356.237-1.389,1.4-.016.523,0,1.046-.008,1.576-.008,1.552-.016,1.527-1.5,2.067-3.594,1.307-5.816,3.757-6.053,7.678-.212,3.471,1.6,5.816,4.452,7.523a49.211,49.211,0,0,0,5.563,2.5,8.262,8.262,0,0,1,2.026,1.193,2.777,2.777,0,0,1-.662,4.868,6.662,6.662,0,0,1-3.569.466,15.932,15.932,0,0,1-5.44-1.625c-1-.523-1.3-.384-1.642.7-.294.939-.555,1.887-.817,2.834-.351,1.274-.221,1.576,1,2.173a17.369,17.369,0,0,0,4.9,1.4c1.323.212,1.364.27,1.38,1.642.008.621.008,1.25.016,1.871a1.111,1.111,0,0,0,1.193,1.258c.915.016,1.838.016,2.753-.008a1.047,1.047,0,0,0,1.135-1.184c0-.849.041-1.707.008-2.557a1.35,1.35,0,0,1,1.168-1.536,9.231,9.231,0,0,0,4.811-3.088A8.681,8.681,0,0,0,132.4,17.965Z" transform="translate(-116.652 0)" fill="#fff"/>
</svg>
