<svg xmlns="http://www.w3.org/2000/svg" width="18.95" height="15.602" viewBox="0 0 18.95 15.602">
  <g id="telephone" transform="translate(0 -4.542)">
    <g id="Group_284" data-name="Group 284" transform="translate(0 4.542)">
      <path id="Path_114" data-name="Path 114" d="M9.612,7.392c3.193.031,5.193-.167,5.464,3.372h3.894c0-5.483-4.782-6.222-9.459-6.222S.052,5.281.052,10.764H3.915C4.214,7.157,6.445,7.361,9.612,7.392Z" transform="translate(-0.033 -4.542)" fill="#689d43"/>
      <path id="Path_115" data-name="Path 115" d="M1.95,23.955c.948,0,1.738.057,1.913-.876a2.381,2.381,0,0,0,.037-.437H0C0,24.03.873,23.955,1.95,23.955Z" transform="translate(0 -15.971)" fill="#689d43"/>
      <path id="Path_116" data-name="Path 116" d="M40.817,22.642h-.036a2.084,2.084,0,0,0,.041.437c.185.86.973.807,1.918.807,1.082,0,1.959.071,1.959-1.244Z" transform="translate(-25.75 -15.971)" fill="#689d43"/>
      <path id="Path_117" data-name="Path 117" d="M15.511,18.684v-.551c0-.247-.284-.262-.635-.262H14.3c-.351,0-.635.015-.635.262v.844H9.614v-.844c0-.247-.284-.262-.635-.262H8.406c-.351,0-.635.015-.635.262v1.033a40.862,40.862,0,0,0-4.056,5.54v3.3a.554.554,0,0,0,.553.553H19.013a.554.554,0,0,0,.553-.553V24.689a41.592,41.592,0,0,0-4.054-5.524Zm-6.1,6.466a.537.537,0,1,1,.537-.537A.537.537,0,0,1,9.414,25.15Zm0-1.843a.537.537,0,1,1,.537-.537A.537.537,0,0,1,9.414,23.307Zm0-1.843a.537.537,0,1,1,.537-.537A.537.537,0,0,1,9.414,21.465Zm2.212,3.685a.537.537,0,1,1,.537-.537A.537.537,0,0,1,11.626,25.15Zm0-1.843a.537.537,0,1,1,.537-.537A.537.537,0,0,1,11.626,23.307Zm0-1.843a.537.537,0,1,1,.537-.537A.537.537,0,0,1,11.626,21.465Zm2.212,3.685a.537.537,0,1,1,.537-.537A.537.537,0,0,1,13.837,25.15Zm0-1.843a.537.537,0,1,1,.537-.537A.537.537,0,0,1,13.837,23.307Zm0-1.843a.537.537,0,1,1,.537-.537A.537.537,0,0,1,13.837,21.465Z" transform="translate(-2.346 -12.958)" fill="#689d43"/>
    </g>
  </g>
</svg>
