<svg xmlns="http://www.w3.org/2000/svg" width="24" height="32" viewBox="0 0 24 32">
  <g id="Unlock_-_Icon" data-name="Unlock - Icon" transform="translate(-54.818)">
    <path id="Path_121" data-name="Path 121" d="M78.235,16.583A1.928,1.928,0,0,0,76.818,16H61.484V9.334a5.138,5.138,0,0,1,1.563-3.771,5.332,5.332,0,0,1,7.542,0,5.138,5.138,0,0,1,1.563,3.771,1.352,1.352,0,0,0,1.333,1.333h1.334a1.352,1.352,0,0,0,1.333-1.333A8.989,8.989,0,0,0,73.412,2.74a9.305,9.305,0,0,0-13.188,0,8.988,8.988,0,0,0-2.739,6.594V16h-.667a1.991,1.991,0,0,0-2,2V30a1.991,1.991,0,0,0,2,2h20a1.991,1.991,0,0,0,2-2V18A1.927,1.927,0,0,0,78.235,16.583Z" transform="translate(0 0)" fill="#689d43"/>
  </g>
</svg>
