<svg id="work" xmlns="http://www.w3.org/2000/svg" width="18.951" height="18.951" viewBox="0 0 18.951 18.951">
  <path id="Path_29" data-name="Path 29" d="M0,0H18.951V18.951H0Z" fill="none"/>
  <path id="Path_30" data-name="Path 30" d="M15.645,4.992H12.612V3.5A1.5,1.5,0,0,0,11.1,2H8.064A1.5,1.5,0,0,0,6.548,3.5v1.5H3.516a1.494,1.494,0,0,0-1.508,1.5L2,14.717a1.5,1.5,0,0,0,1.516,1.5H15.645a1.5,1.5,0,0,0,1.516-1.5V6.488A1.5,1.5,0,0,0,15.645,4.992Zm-4.548,0H8.064V3.5H11.1Z" transform="translate(-0.105 -0.105)" fill="#689d43"/>
</svg>
